<svg xmlns="http://www.w3.org/2000/svg" width="107" height="32" viewBox="0 0 107 32" fill="none">
<path d="M102 0H31V32H102C104.761 32 107 29.7614 107 27V5C107 2.23858 104.761 0 102 0Z" fill="#0F1418"/>
<path d="M31 0H5C2.23858 0 0 2.23858 0 5V27C0 29.7614 2.23858 32 5 32H31V0Z" fill="#1DA1F2"/>
<svg xmlns="http://www.w3.org/2000/svg" id="regular" enable-background="new 0 0 24 24" height="30" viewBox="0 0 24 24" width="30"><path d="m12 24c6.617 0 12-5.383 12-12s-5.383-12-12-12-12 5.383-12 12 5.383 12 12 12zm0-22.5c5.79 0 10.5 4.71 10.5 10.5s-4.71 10.5-10.5 10.5-10.5-4.71-10.5-10.5 4.71-10.5 10.5-10.5z" fill="#fff"/><path fill="#fff" d="m7.896 14.155 1.568-.681-.44.441c-.141.141-.22.332-.22.53v2.935c0 .672.812.998 1.28.53l1.574-1.574 3.43 1.715c.444.222.981-.041 1.073-.537l1.957-10.761c.103-.579-.467-1.047-1.012-.833l-12.716 4.977c-.57.222-.646 1.002-.13 1.331l2.934 1.872c.21.134.475.155.702.055zm8.506-6.347-1.537 8.455-3.02-1.509c-.292-.146-.64-.085-.865.141l-.676.676v-.813l3.007-3.007c.583-.583-.073-1.545-.829-1.218l-4.817 2.09-1.354-.864z"/></svg>
<text y="60%" x="40%" font-size="12" font-weight="bold" 
font-family="Avenir, Helvetica, sans-serif" fill="#fff">
    Telegram
</text>
<path d="M102 0H5C2.23858 0 0 2.23858 0 5V27C0 29.7614 2.23858 32 5 32H102C104.761 32 107 29.7614 107 27V5C107 2.23858 104.761 0 102 0Z" fill="url(#paint0_linear)"/>
<defs>
    <filter id="filter0_d" x="42.6529" y="10.9331" width="53.0751" height="13.25" filterUnits="userSpaceOnUse" color-interpolation-filters="sRGB">
    <feFlood flood-opacity="0" result="BackgroundImageFix"/>
    <feColorMatrix in="SourceAlpha" type="matrix" values="0 0 0 0 0 0 0 0 0 0 0 0 0 0 0 0 0 0 127 0"/>
    <feOffset dy="1"/>
    <feGaussianBlur stdDeviation="0.5"/>
    <feColorMatrix type="matrix" values="0 0 0 0 0 0 0 0 0 0 0 0 0 0 0 0 0 0 1 0"/>
    <feBlend mode="normal" in2="BackgroundImageFix" result="effect1_dropShadow"/>
    <feBlend mode="normal" in="SourceGraphic" in2="effect1_dropShadow" result="shape"/>
    </filter>
    <linearGradient id="paint0_linear" x1="0" y1="0" x2="0" y2="32" gradientUnits="userSpaceOnUse">
    <stop stop-color="#BBBBBB" stop-opacity="0.1"/>
    <stop offset="1" stop-opacity="0.1"/>
    </linearGradient>
</defs>
</svg>