<svg xmlns="http://www.w3.org/2000/svg" width="107" height="32" viewBox="0 0 107 32" fill="none">
<path d="M102 0H31V32H102C104.761 32 107 29.7614 107 27V5C107 2.23858 104.761 0 102 0Z" fill="#0F1418"/>
<path d="M31 0H5C2.23858 0 0 2.23858 0 5V27C0 29.7614 2.23858 32 5 32H31V0Z" fill="#1DA1F2"/>
<svg xmlns="http://www.w3.org/2000/svg" viewBox="0 0 24 24" width="30" height="30"><title/><g data-name="VK Logo" id="VK_Logo"><g data-name="&lt;Group&gt;" id="_Group_"><path d="M.5,6.5h4s2.31,6,4.5,6c.41,0,.5-.75.5-3s-.59-3-1-3c0-.41.78-1,3-1s2,.06,2,1v4c0,1.16.38,2,1,2s4.22-4.44,4.5-6h4.5c0,.53-4,6.06-4,6.5s4,4.5,4,5-.87.5-2,.5H19c-.59,0-3.16-3-4.5-3s-.28,3-1.5,3H11C7.28,18.5,1,9.41.5,6.5Z" data-name="&lt;Path&gt;" id="_Path_" style="fill:#fff;stroke:#303c42;stroke-linecap:round;stroke-linejoin:round"/></g></g></svg>
<text y="60%" x="40%" font-size="12" font-weight="bold" 
font-family="Avenir, Helvetica, sans-serif" fill="#fff">
    VKontakte
</text>
<path d="M102 0H5C2.23858 0 0 2.23858 0 5V27C0 29.7614 2.23858 32 5 32H102C104.761 32 107 29.7614 107 27V5C107 2.23858 104.761 0 102 0Z" fill="url(#paint0_linear)"/>
<defs>
    <filter id="filter0_d" x="42.6529" y="10.9331" width="53.0751" height="13.25" filterUnits="userSpaceOnUse" color-interpolation-filters="sRGB">
    <feFlood flood-opacity="0" result="BackgroundImageFix"/>
    <feColorMatrix in="SourceAlpha" type="matrix" values="0 0 0 0 0 0 0 0 0 0 0 0 0 0 0 0 0 0 127 0"/>
    <feOffset dy="1"/>
    <feGaussianBlur stdDeviation="0.5"/>
    <feColorMatrix type="matrix" values="0 0 0 0 0 0 0 0 0 0 0 0 0 0 0 0 0 0 1 0"/>
    <feBlend mode="normal" in2="BackgroundImageFix" result="effect1_dropShadow"/>
    <feBlend mode="normal" in="SourceGraphic" in2="effect1_dropShadow" result="shape"/>
    </filter>
    <linearGradient id="paint0_linear" x1="0" y1="0" x2="0" y2="32" gradientUnits="userSpaceOnUse">
    <stop stop-color="#BBBBBB" stop-opacity="0.1"/>
    <stop offset="1" stop-opacity="0.1"/>
    </linearGradient>
</defs>
</svg>